<svg id="Capa_1" version="1.1" baseProfile="tiny" xmlns="http://www.w3.org/2000/svg" xmlns:xlink="http://www.w3.org/1999/xlink" x="0px" y="0px" viewBox="0 0 209.1 70.6" xml:space="preserve">
				                  <g transform="translate(104.543 35.275)">
				                    <g transform="translate(-104.543 -35.275)">
				                      <g transform="translate(33.939 49.817)">
				                        <path fill="#B1C91E" d="M9.2,0.7C9.2,0.5,9.1,0.3,8.9,0.2C8.8,0,8.6,0,8.4,0H7.1C6.9,0,6.7,0,6.6,0.2C6.4,0.3,6.3,0.5,6.2,0.7                    L0.1,15.2C0,15.3,0,15.5,0,15.6C0,15.9,0.2,16,0.5,16h2c0.2,0,0.3,0,0.5-0.1c0.1-0.1,0.2-0.2,0.3-0.4l1.3-3.2h6.3l1.3,3.2                    c0.1,0.2,0.2,0.3,0.3,0.4c0.2,0.1,0.3,0.1,0.5,0.1h2c0.3,0,0.5-0.2,0.5-0.5c0-0.1,0-0.2-0.1-0.3L9.2,0.7z M10,10H5.4l2.3-5.7                    L10,10z"></path>
				                        <path fill="#B1C91E" d="M32.4,5.3c-0.9-0.7-2-1.1-3.1-1c-1.6-0.1-3.2,0.5-4.4,1.6l0-0.7c0-0.3-0.3-0.6-0.6-0.6c0,0-0.1,0-0.1,0                    h-1.3c-0.2,0-0.4,0-0.6,0.2c-0.1,0.2-0.2,0.4-0.1,0.6v9.7c0,0.3,0.1,0.5,0.2,0.7c0.2,0.2,0.5,0.3,0.8,0.2h1.2                    c0.3,0,0.6-0.1,0.8-0.2c0.2-0.2,0.2-0.5,0.2-0.7V8.9c0-0.7,0.3-1.3,0.9-1.6c0.6-0.4,1.3-0.7,2.1-0.6c0.6-0.1,1.1,0.1,1.6,0.4                    c0.4,0.4,0.5,1,0.5,1.5v6.4c0,0.3,0.1,0.5,0.2,0.7c0.2,0.2,0.5,0.3,0.8,0.2h1.2c0.5,0.1,0.9-0.2,1-0.7c0-0.1,0-0.2,0-0.3V8.5                    C33.7,7.3,33.3,6.2,32.4,5.3L32.4,5.3z"></path>
				                        <path fill="#B1C91E" d="M48.9,13.6c-0.1-0.1-0.2-0.2-0.4-0.3c-0.1,0-0.2,0-0.3,0.1c-0.2,0.2-0.5,0.3-0.8,0.4                    c-0.3,0.1-0.6,0.1-0.9,0.1c-0.4,0-0.9-0.1-1.2-0.4c-0.3-0.4-0.4-1-0.3-1.5v-5h2.6c0.3,0,0.5,0,0.7-0.2c0.1-0.2,0.2-0.4,0.2-0.7                    V5.6c0-0.2,0-0.5-0.2-0.7c-0.2-0.2-0.5-0.2-0.7-0.2H45V1.8c0-0.2-0.1-0.5-0.2-0.7c-0.2-0.2-0.4-0.3-0.7-0.2h-0.8                    c-0.4-0.1-0.7,0.1-0.8,0.5c-0.2,0.4-0.4,0.7-0.6,1.1c-0.1,0.3-0.2,0.6-0.2,1v1.2h-1.2c-0.3,0-0.5,0-0.7,0.2                    c-0.1,0.2-0.2,0.4-0.2,0.7v0.6c0,0.2,0,0.5,0.2,0.7c0.2,0.2,0.4,0.2,0.7,0.2h1.2v5.1c-0.1,1.1,0.3,2.2,1,3.1                    c0.8,0.8,1.9,1.2,3.1,1.1c1.2,0,2.5-0.3,3.5-1c0.2-0.1,0.3-0.2,0.3-0.4c0-0.1,0-0.2-0.1-0.3L48.9,13.6z"></path>
				                        <path fill="#B1C91E" d="M58.3,4.6h-1.2c-0.3,0-0.5,0.1-0.8,0.2c-0.2,0.2-0.3,0.5-0.2,0.7v9.5c0,0.3,0.1,0.5,0.2,0.7                    c0.2,0.2,0.5,0.3,0.8,0.2h1.2c0.3,0,0.6-0.1,0.8-0.2c0.2-0.2,0.2-0.5,0.2-0.7V5.6c0-0.3-0.1-0.5-0.2-0.7                    C58.9,4.7,58.6,4.6,58.3,4.6L58.3,4.6z"></path>
				                        <path fill="#B1C91E" d="M58.2,0h-1c-0.7,0-1.2,0.4-1.3,1.1c0,0,0,0.1,0,0.1v0.5c0,0.7,0.5,1.2,1.1,1.2c0,0,0.1,0,0.1,0h1                    c0.4,0,0.7-0.1,1-0.4c0.2-0.2,0.4-0.5,0.3-0.9V1.2c0-0.3-0.1-0.6-0.3-0.9C58.9,0.1,58.6,0,58.2,0L58.2,0z"></path>
				                        <path fill="#B1C91E" d="M72.6,4.3c-1.7-0.1-3.4,0.5-4.7,1.6c-2.2,2.5-2.2,6.3,0,8.8c2.8,2.2,6.7,2.2,9.5,0                    c2.4-2.3,2.6-6.1,0.3-8.6C76.3,4.8,74.5,4.1,72.6,4.3L72.6,4.3z M75,13.1c-1.4,1.2-3.5,1.2-4.8,0c-0.6-0.8-0.9-1.7-0.8-2.7                    c-0.1-1,0.2-1.9,0.8-2.7c1.4-1.2,3.4-1.2,4.8,0c0.6,0.8,0.9,1.7,0.8,2.7C75.9,11.3,75.6,12.3,75,13.1L75,13.1z"></path>
				                        <path fill="#B1C91E" d="M95.1,4.7c-1-0.3-2-0.4-3-0.4C90.3,4.2,88.5,4.8,87,6c-1.2,1.2-1.9,3-1.8,4.7c-0.1,1.5,0.5,3,1.5,4.2                    c1.1,1.1,2.6,1.6,4.1,1.5c1.3,0.1,2.5-0.4,3.5-1.2v4.6c0,0.3,0.1,0.5,0.2,0.7c0.2,0.2,0.5,0.3,0.8,0.2h1.2c0.3,0,0.6-0.1,0.8-0.2                    c0.2-0.2,0.3-0.5,0.2-0.7V5.8l-0.1,0C96.8,5.3,96,4.9,95.1,4.7L95.1,4.7z M91.6,14c-2.1,0-3.2-1.1-3.2-3.4                    c-0.1-1.1,0.3-2.1,1-2.9c0.8-0.7,1.8-1,2.8-1c0.8,0,1.5,0.1,2.2,0.4v4.5c0,0.7-0.3,1.4-0.8,1.8C93,13.8,92.3,14.1,91.6,14                    L91.6,14z"></path>
				                        <path fill="#B1C91E" d="M114.9,4.6h-1.2c-0.3,0-0.5,0.1-0.8,0.2c-0.2,0.2-0.3,0.5-0.2,0.7v6.1c0,0.6-0.3,1.3-0.8,1.7                    c-0.6,0.4-1.2,0.7-1.9,0.7c-0.6,0-1.2-0.1-1.6-0.5c-0.4-0.4-0.6-1-0.5-1.5V5.6c0-0.3-0.1-0.5-0.2-0.7c-0.2-0.2-0.5-0.3-0.8-0.2                    h-1.2c-0.3,0-0.5,0.1-0.8,0.2c-0.2,0.2-0.3,0.5-0.2,0.7v6.4c-0.1,1.2,0.4,2.4,1.2,3.2c0.9,0.7,2,1.1,3.1,1.1                    c1.6,0.1,3.1-0.5,4.3-1.6l0.1,0.7c0,0.2,0.1,0.3,0.2,0.4c0.1,0.1,0.3,0.1,0.5,0.1h1.3c0.2,0,0.4,0,0.6-0.2                    c0.1-0.2,0.2-0.4,0.1-0.6V5.6c0-0.3-0.1-0.5-0.2-0.7C115.5,4.7,115.2,4.6,114.9,4.6z"></path>
				                        <path fill="#B1C91E" d="M125.4,0h-1c-0.7,0-1.2,0.4-1.3,1.1c0,0,0,0.1,0,0.1v0.5c0,0.7,0.5,1.2,1.1,1.2c0,0,0.1,0,0.1,0h1                    c0.4,0,0.7-0.1,1-0.4c0.2-0.2,0.4-0.5,0.3-0.9V1.2c0-0.3-0.1-0.6-0.3-0.9C126.1,0.1,125.7,0,125.4,0L125.4,0z"></path>
				                        <path fill="#B1C91E" d="M125.5,4.6h-1.2c-0.3,0-0.5,0.1-0.8,0.2c-0.2,0.2-0.3,0.5-0.2,0.7v9.5c0,0.3,0.1,0.5,0.2,0.7                    c0.2,0.2,0.5,0.3,0.8,0.2h1.2c0.3,0,0.6-0.1,0.8-0.2c0.2-0.2,0.2-0.5,0.2-0.7V5.6c0-0.3-0.1-0.5-0.2-0.7                    C126,4.7,125.8,4.6,125.5,4.6L125.5,4.6z"></path>
				                        <path fill="#B1C91E" d="M145.6,5.7c-1.5-1-3.3-1.5-5.1-1.4c-1.3,0-2.6,0.3-3.8,0.8c-1,0.5-1.9,1.3-2.5,2.4                    c-0.6,1.1-0.9,2.3-0.9,3.5c-0.1,1.5,0.4,2.9,1.4,4c1,1,2.3,1.5,3.7,1.4c0.9,0,1.8-0.1,2.6-0.4c0.6-0.2,1.2-0.6,1.7-1.1l0.1,0.7                    c0,0.2,0.1,0.3,0.2,0.4c0.1,0.1,0.3,0.1,0.5,0.1h1.3c0.2,0,0.4,0,0.6-0.2c0.1-0.2,0.2-0.4,0.2-0.6L145.6,5.7L145.6,5.7z                    M140.5,6.7c0.4,0,0.8,0,1.2,0.1c0.3,0.1,0.6,0.2,0.9,0.3v4.5c0,0.7-0.3,1.4-0.9,1.8c-0.6,0.5-1.3,0.7-2.1,0.7                    c-0.8,0.1-1.7-0.2-2.3-0.8c-0.6-0.7-0.8-1.5-0.7-2.4c-0.1-1.1,0.3-2.3,1.1-3.1C138.4,7,139.4,6.6,140.5,6.7L140.5,6.7z"></path>
				                      </g>
				                      <path fill="#004B37" d="M15.1,45.7c-2.3,0-4.6-0.4-6.7-1.2c-1.8-0.7-3.4-1.8-4.7-3.2c-1.3-1.4-2.2-3.1-2.8-5C0.3,34.3,0,32.1,0,30                  c0-2.1,0.3-4.2,1-6.2c0.6-1.8,1.6-3.6,2.9-5c1.3-1.4,2.9-2.6,4.7-3.3c2-0.8,4.1-1.2,6.2-1.2c2.5,0,5,0.4,7.4,1.3l0.5,0.2l-0.9,3.5                  c-0.4,0.8-1.1,1.2-2,1.2c-0.3,0-0.6,0-0.8-0.1c-0.3-0.1-0.6-0.2-0.9-0.2c-1.1-0.2-2.2-0.4-3.4-0.4c-2.5-0.2-4.9,0.8-6.6,2.7                  c-1.6,2.2-2.4,4.8-2.2,7.5c-0.1,2.6,0.6,5.2,2.1,7.4c1.7,2.1,4.4,3.3,7.2,3.2c1.2,0,2.4-0.1,3.6-0.4c0.4-0.1,0.7-0.1,1-0.2                  c0.1,0,0.3,0,0.4,0c0.8,0,1.9,0.2,2,1l0.9,3.4l-0.4,0.2c-0.9,0.3-1.9,0.6-2.8,0.8C18.3,45.5,16.7,45.7,15.1,45.7L15.1,45.7z"></path>
				                      <path fill="#004B37" d="M44.3,34c0,1.6-0.2,3.2-0.8,4.8c-0.5,1.4-1.2,2.6-2.2,3.7c-0.9,1-2.1,1.8-3.4,2.4                  c-1.4,0.6-2.8,0.9-4.3,0.8c-1.5,0-2.9-0.3-4.3-0.8c-1.3-0.5-2.4-1.3-3.3-2.4c-1-1.1-1.7-2.3-2.2-3.7c-0.6-1.5-0.8-3.1-0.8-4.8                  c0-1.6,0.2-3.2,0.8-4.8c0.5-1.4,1.2-2.6,2.2-3.7c0.9-1,2.1-1.8,3.4-2.3c1.4-0.6,2.8-0.8,4.3-0.8c1.5,0,2.9,0.3,4.3,0.8                  c1.3,0.5,2.4,1.3,3.4,2.3c1,1.1,1.7,2.3,2.2,3.7C44.1,30.8,44.3,32.4,44.3,34z M39.1,34c0.1-1.8-0.4-3.7-1.4-5.2                  c-0.9-1.3-2.4-2-4-1.9c-1.6-0.1-3,0.7-3.9,1.9c-1,1.5-1.5,3.4-1.4,5.2c-0.1,1.9,0.4,3.7,1.4,5.3c0.9,1.3,2.4,2,3.9,1.9                  c1.6,0.1,3-0.7,3.9-1.9C38.7,37.7,39.2,35.9,39.1,34L39.1,34z"></path>
				                      <path fill="#004B37" d="M60.1,33.5c0.1-1.7-0.2-3.4-0.9-5c-0.7-1.1-1.9-1.7-3.2-1.5c-0.6,0-1.2,0-1.9,0.1                  c-0.7,0.1-1.2,0.2-1.5,0.2v16.4c0,0.8-0.6,1.4-1.4,1.4h-3.7V27.4c0-2.2,1.6-4.1,3.8-4.5l0.1,0c1.7-0.3,3.4-0.4,5-0.4                  c1.3,0,2.5,0.2,3.7,0.6c0.9,0.4,1.7,0.9,2.4,1.6c0.4-0.3,0.8-0.5,1.2-0.7c0.5-0.3,1.1-0.5,1.6-0.7c0.6-0.2,1.2-0.4,1.8-0.5                  c0.7-0.2,1.5-0.2,2.2-0.2c1.4,0,2.8,0.2,4.1,0.7c1,0.4,2,1.2,2.6,2.1c0.7,1,1.1,2.1,1.3,3.2c0.2,1.4,0.4,2.7,0.4,4.1v11                  c0,0.8-0.6,1.4-1.4,1.4l0,0h-3.7V33.5c0.1-1.7-0.2-3.4-0.8-5c-0.7-1.1-2-1.7-3.3-1.5c-0.8,0-1.6,0.1-2.3,0.4                  c-0.6,0.2-1.1,0.5-1.6,0.8c0.2,0.7,0.4,1.5,0.5,2.2c0.1,0.8,0.1,1.7,0.1,2.5v10.7c0,0.8-0.7,1.5-1.5,1.5h-3.6V33.5z"></path>
				                      <path fill="#004B37" d="M90.9,12.3c1.1,0,2.1,0.1,3.1,0.3c0.7,0.1,1.4,0.3,2,0.6l-0.6,2.7c-0.2,0.8-0.9,1.3-1.7,1.1c0,0,0,0,0,0                  c-0.1,0-0.2,0-0.3-0.1c-0.7-0.1-1.4-0.2-2-0.2c-0.7,0-1.4,0.1-2.1,0.4c-0.5,0.2-1,0.6-1.4,1c-0.4,0.5-0.6,1-0.7,1.5                  c-0.1,0.6-0.2,1.3-0.2,2V23h8v2.8c0,0.8-0.6,1.4-1.4,1.4H87v16.5c0,0.7-0.6,1.3-1.3,1.3h-3.8V21.5c-0.1-2.4,0.7-4.8,2.2-6.7                  C85.6,13.1,87.9,12.3,90.9,12.3z"></path>
				                      <path fill="#004B37" d="M95,34.2c0-1.7,0.3-3.5,0.9-5.1c0.5-1.4,1.3-2.6,2.3-3.7c0.9-1,2.1-1.7,3.3-2.2c1.2-0.5,2.5-0.7,3.8-0.7                  c2.7-0.1,5.3,0.9,7.1,2.8c1.7,1.9,2.6,4.7,2.6,8.4v0.5c0,0.8-0.6,1.4-1.4,1.4h-13.2c0,1.6,0.7,3.1,1.9,4.1                  c1.4,1.1,3.1,1.6,4.8,1.5c1.1,0,2.3-0.1,3.4-0.3c0.3-0.1,0.6-0.1,0.9-0.2c0.8-0.2,1.6,0.3,1.8,1c0,0,0,0.1,0,0.1l0.4,2.5                  c-0.4,0.2-0.8,0.3-1.2,0.4c-0.6,0.2-1.1,0.3-1.7,0.4c-0.6,0.1-1.3,0.2-2,0.3c-0.7,0.1-1.5,0.1-2.2,0.1c-1.7,0-3.5-0.3-5.1-0.9                  c-1.4-0.5-2.6-1.3-3.5-2.4c-0.9-1-1.6-2.3-2.1-3.6C95.2,37.3,95,35.7,95,34.2L95,34.2z M109.9,31.9c0-0.7-0.1-1.4-0.3-2                  c-0.2-0.6-0.5-1.2-0.9-1.6c-0.4-0.5-0.9-0.8-1.4-1.1c-0.6-0.3-1.3-0.4-2-0.4c-0.7,0-1.4,0.1-2.1,0.4c-0.6,0.3-1.1,0.7-1.5,1.2                  c-0.4,0.5-0.7,1-0.9,1.6c-0.2,0.6-0.4,1.3-0.5,1.9L109.9,31.9z"></path>
				                      <path fill="#004B37" d="M118.3,27.4c0-2.2,1.6-4.1,3.8-4.5l0,0c1.7-0.3,3.5-0.4,5.2-0.4c1.5,0,3.1,0.2,4.5,0.7                  c1.1,0.4,2.1,1.1,2.9,2.1c0.7,0.9,1.3,2,1.5,3.2c0.3,1.4,0.5,2.7,0.4,4.1v11c0,0.8-0.6,1.4-1.4,1.4h-3.7V33.5c0-1-0.1-2-0.2-3                  c-0.1-0.7-0.4-1.4-0.8-2c-0.4-0.5-0.9-0.9-1.4-1.1c-0.7-0.3-1.5-0.4-2.2-0.4c-0.7,0-1.4,0-2,0.1c-0.7,0.1-1.2,0.2-1.6,0.2v16.4                  c0,0.8-0.6,1.4-1.4,1.4c0,0,0,0,0,0h-3.7L118.3,27.4z"></path>
				                      <path fill="#004B37" d="M148.2,22.5c1.4,0,2.9,0.2,4.3,0.6c1.1,0.4,2,1,2.8,1.8c0.7,0.8,1.2,1.7,1.5,2.8c0.3,1.2,0.5,2.4,0.4,3.6                  v13.4c-0.8,0.2-2,0.4-3.6,0.6c-1.8,0.3-3.6,0.4-5.4,0.4c-1.2,0-2.4-0.1-3.6-0.4c-1-0.2-2-0.6-2.8-1.2c-0.8-0.6-1.4-1.3-1.8-2.2                  c-0.5-1-0.7-2.2-0.7-3.3c0-1.1,0.2-2.2,0.7-3.2c0.5-0.9,1.2-1.6,2-2.1c0.9-0.6,1.9-1,2.9-1.2c1.1-0.2,2.3-0.4,3.5-0.4                  c0.6,0,1.2,0,1.8,0.1c0.7,0.1,1.3,0.2,2,0.4v-0.8c0-0.6-0.1-1.1-0.2-1.7c-0.1-0.5-0.4-1-0.7-1.4c-0.4-0.4-0.9-0.8-1.4-1                  c-0.7-0.2-1.4-0.4-2.2-0.3c-1.1,0-2.2,0.1-3.3,0.3c-0.3,0.1-0.6,0.1-0.9,0.2c-0.8,0.2-1.5-0.3-1.7-1.1c0,0,0-0.1,0-0.1l-0.4-2.6                  c0.9-0.3,1.9-0.5,2.8-0.7C145.6,22.6,146.9,22.5,148.2,22.5L148.2,22.5z M148.6,41.5c1.2,0,2.4-0.1,3.6-0.3v-5.7                  c-0.4-0.1-0.8-0.2-1.2-0.3c-0.6-0.1-1.2-0.1-1.8-0.1c-0.6,0-1.1,0-1.7,0.1c-0.5,0.1-1.1,0.2-1.6,0.5c-0.4,0.2-0.8,0.5-1.1,1                  c-0.3,0.5-0.4,1-0.4,1.5c-0.1,1,0.3,1.9,1.1,2.5C146.5,41.3,147.6,41.6,148.6,41.5L148.6,41.5z"></path>
				                      <path fill="#004B37" d="M169,45.5c-1.3,0-2.5-0.2-3.8-0.5c-0.9-0.2-1.7-0.7-2.4-1.3c-0.6-0.6-1-1.3-1.2-2.2                  c-0.3-1-0.4-1.9-0.4-2.9V13.2l5.1-0.8v25.3c0,0.5,0,1,0.1,1.6c0.1,0.4,0.3,0.8,0.5,1.1c0.3,0.3,0.6,0.5,1,0.7h0                  c1.4,0.5,1.5,1.2,1.3,2.2L169,45.5z"></path>
				                      <path fill="#004B37" d="M209.1,34c0,1.6-0.2,3.2-0.8,4.8c-0.5,1.4-1.2,2.6-2.2,3.7c-0.9,1-2.1,1.8-3.4,2.4                  c-1.4,0.6-2.8,0.9-4.3,0.8c-1.5,0-2.9-0.3-4.3-0.8c-1.3-0.5-2.4-1.3-3.3-2.4c-1-1.1-1.7-2.3-2.2-3.7c-0.5-1.5-0.8-3.1-0.8-4.8                  c0-1.6,0.2-3.2,0.8-4.8c0.5-1.4,1.2-2.6,2.2-3.7c0.9-1,2.1-1.8,3.4-2.3c1.4-0.6,2.8-0.8,4.3-0.8c1.5,0,2.9,0.3,4.3,0.8                  c1.3,0.5,2.4,1.3,3.4,2.3c1,1.1,1.7,2.3,2.2,3.7C208.8,30.8,209.1,32.4,209.1,34L209.1,34z M203.8,34c0.1-1.8-0.4-3.7-1.4-5.2                  c-1.7-2.2-4.9-2.6-7-0.9c-0.3,0.2-0.6,0.5-0.9,0.9c-1,1.5-1.5,3.4-1.4,5.2c-0.1,1.9,0.4,3.7,1.4,5.3c1.7,2.2,4.8,2.6,7,0.9                  c0.3-0.3,0.6-0.6,0.9-0.9C203.5,37.7,204,35.9,203.8,34z"></path>
				                      <path fill="#004B37" d="M170.5,34.1c0-1.6,0.2-3.1,0.8-4.6c0.5-1.4,1.2-2.6,2.2-3.7c1-1.1,2.1-1.9,3.4-2.4c1.4-0.6,3-0.9,4.6-0.9                  c2,0,4,0.4,5.9,1.1l-0.7,2.7c-0.2,0.8-1,1.2-1.7,1c0,0,0,0,0,0c-0.2-0.1-0.4-0.1-0.6-0.2c-0.8-0.2-1.6-0.3-2.4-0.3                  c-1.7-0.1-3.4,0.6-4.6,1.9c-1.1,1.5-1.7,3.4-1.6,5.3c-0.1,1.9,0.4,3.7,1.5,5.2c1,1.3,2.6,1.9,5,1.9c0.9,0,1.7-0.1,2.6-0.3                  c0.3-0.1,0.5-0.1,0.7-0.2c0.8-0.2,1.5,0.3,1.7,1c0,0,0,0.1,0,0.1l0.4,2.6c-0.8,0.4-1.7,0.6-2.6,0.8c-1.2,0.2-2.3,0.3-3.5,0.3                  c-1.7,0-3.4-0.3-4.9-0.9c-1.3-0.5-2.5-1.4-3.5-2.4c-0.9-1.1-1.6-2.3-2-3.7C170.7,37.2,170.5,35.6,170.5,34.1z"></path>
				                      <path fill="#B1C91E" d="M115.8,16.7c-4.1-0.8-7.4-4.1-8.1-8.2c-0.1-1.4-1.3-2.4-2.7-2.3c-1.4,0.1-2.4,1.3-2.3,2.7                  c0,0.1,0,0.2,0.1,0.4l0,0c1,6.4,6,11.4,12.4,12.5l0,0c1.4,0.2,2.7-0.7,2.9-2s-0.7-2.7-2-2.9C116,16.7,115.9,16.7,115.8,16.7                  L115.8,16.7z"></path>
				                      <path fill="#B1C91E" d="M139.1,16.7c4.1-0.8,7.4-4.1,8.1-8.2c0.1-1.4,1.3-2.4,2.7-2.3s2.4,1.3,2.3,2.7c0,0.1,0,0.2-0.1,0.4l0,0                  c-1,6.4-6,11.4-12.4,12.5l0,0c-1.4,0.2-2.7-0.7-2.9-2c-0.2-1.4,0.7-2.7,2-2.9C139,16.7,139,16.7,139.1,16.7L139.1,16.7z"></path>
				                      <path fill="#B1C91E" d="M127.6,0c-5.4,0-9.7,4.4-9.7,9.7c0,5.4,4.4,9.7,9.7,9.7c5.4,0,9.7-4.3,9.7-9.7C137.3,4.4,132.9,0,127.6,0                  C127.6,0,127.6,0,127.6,0z M127.6,15.4c-3.1,0-5.6-2.5-5.6-5.6s2.5-5.6,5.6-5.6c3.1,0,5.6,2.5,5.6,5.6                  C133.2,12.8,130.7,15.4,127.6,15.4C127.6,15.4,127.6,15.4,127.6,15.4L127.6,15.4z"></path>
				                    </g>
				                  </g>
				                </svg>